<?xml version="1.0" encoding="UTF-8" standalone="no"?>
<svg
   xmlns:dc="http://purl.org/dc/elements/1.1/"
   xmlns:cc="http://creativecommons.org/ns#"
   xmlns:rdf="http://www.w3.org/1999/02/22-rdf-syntax-ns#"
   xmlns:svg="http://www.w3.org/2000/svg"
   xmlns="http://www.w3.org/2000/svg"
   xmlns:sodipodi="http://sodipodi.sourceforge.net/DTD/sodipodi-0.dtd"
   xmlns:inkscape="http://www.inkscape.org/namespaces/inkscape"
   width="16"
   height="16"
   fill="currentColor"
   class="bi bi-cassette"
   viewBox="0 0 16 16"
   version="1.1"
   id="svg6"
   sodipodi:docname="cassette-white.svg"
   inkscape:version="0.92.5 (2060ec1f9f, 2020-04-08)">
  <metadata
     id="metadata12">
    <rdf:RDF>
      <cc:Work
         rdf:about="">
        <dc:format>image/svg+xml</dc:format>
        <dc:type
           rdf:resource="http://purl.org/dc/dcmitype/StillImage" />
        <dc:title></dc:title>
      </cc:Work>
    </rdf:RDF>
  </metadata>
  <defs
     id="defs10" />
  <sodipodi:namedview
     pagecolor="#ffffff"
     bordercolor="#666666"
     borderopacity="1"
     objecttolerance="10"
     gridtolerance="10"
     guidetolerance="10"
     inkscape:pageopacity="0"
     inkscape:pageshadow="2"
     inkscape:window-width="1651"
     inkscape:window-height="775"
     id="namedview8"
     showgrid="false"
     inkscape:zoom="14.75"
     inkscape:cx="8"
     inkscape:cy="8"
     inkscape:window-x="58"
     inkscape:window-y="27"
     inkscape:window-maximized="0"
     inkscape:current-layer="svg6" />
  <path
     d="M4 8a1 1 0 1 0 0-2 1 1 0 0 0 0 2m9-1a1 1 0 1 1-2 0 1 1 0 0 1 2 0M7 6a1 1 0 0 0 0 2h2a1 1 0 1 0 0-2z"
     id="path2"
     style="fill:#ffffff" />
  <path
     d="M1.5 2A1.5 1.5 0 0 0 0 3.5v9A1.5 1.5 0 0 0 1.5 14h13a1.5 1.5 0 0 0 1.5-1.5v-9A1.5 1.5 0 0 0 14.5 2zM1 3.5a.5.5 0 0 1 .5-.5h13a.5.5 0 0 1 .5.5v9a.5.5 0 0 1-.5.5h-.691l-1.362-2.724A.5.5 0 0 0 12 10H4a.5.5 0 0 0-.447.276L2.19 13H1.5a.5.5 0 0 1-.5-.5zM11.691 11l1 2H3.309l1-2z"
     id="path4"
     style="fill:#ffffff" />
</svg>
