<?xml version="1.0" encoding="UTF-8" standalone="no"?>
<svg
   xmlns:dc="http://purl.org/dc/elements/1.1/"
   xmlns:cc="http://creativecommons.org/ns#"
   xmlns:rdf="http://www.w3.org/1999/02/22-rdf-syntax-ns#"
   xmlns:svg="http://www.w3.org/2000/svg"
   xmlns="http://www.w3.org/2000/svg"
   xmlns:sodipodi="http://sodipodi.sourceforge.net/DTD/sodipodi-0.dtd"
   xmlns:inkscape="http://www.inkscape.org/namespaces/inkscape"
   width="32"
   height="32"
   class="bi bi-box-arrow-up-right"
   viewBox="0 0 32 32"
   version="1.1"
   id="svg6"
   sodipodi:docname="external.svg"
   inkscape:version="0.92.5 (2060ec1f9f, 2020-04-08)"
   style="fill:currentColor">
  <metadata
     id="metadata12">
    <rdf:RDF>
      <cc:Work
         rdf:about="">
        <dc:format>image/svg+xml</dc:format>
        <dc:type
           rdf:resource="http://purl.org/dc/dcmitype/StillImage" />
        <dc:title />
      </cc:Work>
    </rdf:RDF>
  </metadata>
  <defs
     id="defs10" />
  <sodipodi:namedview
     pagecolor="#ffffff"
     bordercolor="#666666"
     borderopacity="1"
     objecttolerance="10"
     gridtolerance="10"
     guidetolerance="10"
     inkscape:pageopacity="0"
     inkscape:pageshadow="2"
     inkscape:window-width="1456"
     inkscape:window-height="882"
     id="namedview8"
     showgrid="false"
     inkscape:zoom="14.75"
     inkscape:cx="9.1152154"
     inkscape:cy="11.482289"
     inkscape:window-x="58"
     inkscape:window-y="27"
     inkscape:window-maximized="0"
     inkscape:current-layer="svg6" />
  <path
     d="m 17.272,7 c 0,-0.5522847 -0.447715,-1 -1,-1 H 3 C 1.3431458,6 0,7.3431458 0,9 v 20 c 0,1.656854 1.3431458,3 3,3 h 20 c 1.656854,0 3.271186,-1.343146 3.271186,-3 V 15.728 c 0,-1.333333 -2.542372,-1.333333 -2.542372,0 V 29 c 0,0.552285 -0.176529,0.457628 -0.728814,0.457628 H 3 C 2.4477153,29.457628 2.5423728,29.552285 2.5423728,29 V 9 C 2.5423728,8.4477153 2.4477153,8.5423728 3,8.5423728 h 13.272 c 0.552285,0 1,-0.9900881 1,-1.5423728"
     id="path2"
     style="fill:#5e5e5e;fill-opacity:1;fill-rule:evenodd;stroke-width:1"
     inkscape:connector-curvature="0"
     sodipodi:nodetypes="cssssssssssssssssc" />
  <path
     d="M 32,1 C 32,0.44771525 31.552285,0 31,0 H 21 c -1.333333,0 -1.333277,2.5546168 0,2.5423728 l 7.38261,-0.067797 -16.294,15.7496272 c -0.943999,0.944 0.946576,2.698983 1.890576,1.754983 L 29.728814,3.6851864 29.457628,11 C 29.40823,12.332418 32,12.333333 32,11 Z"
     id="path4"
     style="fill:#5e5e5e;fill-opacity:1;fill-rule:evenodd;stroke-width:1"
     inkscape:connector-curvature="0"
     sodipodi:nodetypes="ssssccccsss" />
</svg>
