<?xml version="1.0" encoding="UTF-8"?>
<svg version="1.1" xmlns="http://www.w3.org/2000/svg" width="37" height="33">
<path d="M0 0 C11.55 0 23.1 0 35 0 C35 10.56 35 21.12 35 32 C31.04 32 27.08 32 23 32 C23 28.04 23 24.08 23 20 C19.37 20 15.74 20 12 20 C12 23.96 12 27.92 12 32 C8.04 32 4.08 32 0 32 C0 21.44 0 10.88 0 0 Z " fill="#292929" transform="translate(1,0)"/>
<path d="M0 0 C3.63 0 7.26 0 11 0 C11 10.56 11 21.12 11 32 C7.37 32 3.74 32 0 32 C0 21.44 0 10.88 0 0 Z " fill="#070707" transform="translate(25,0)"/>
<path d="M0 0 C2.97 0 5.94 0 9 0 C9 5.94 9 11.88 9 18 C6.03 18 3.06 18 0 18 C0 12.06 0 6.12 0 0 Z " fill="#000000" transform="translate(14,1)"/>
</svg>
