<?xml version="1.0" encoding="UTF-8" standalone="no"?>
<svg
   xmlns:dc="http://purl.org/dc/elements/1.1/"
   xmlns:cc="http://creativecommons.org/ns#"
   xmlns:rdf="http://www.w3.org/1999/02/22-rdf-syntax-ns#"
   xmlns:svg="http://www.w3.org/2000/svg"
   xmlns="http://www.w3.org/2000/svg"
   xmlns:sodipodi="http://sodipodi.sourceforge.net/DTD/sodipodi-0.dtd"
   xmlns:inkscape="http://www.inkscape.org/namespaces/inkscape"
   width="16"
   height="16"
   fill="currentColor"
   class="bi bi-grid"
   viewBox="0 0 16 16"
   version="1.1"
   id="svg4"
   sodipodi:docname="row.svg"
   inkscape:version="0.92.5 (2060ec1f9f, 2020-04-08)">
  <metadata
     id="metadata10">
    <rdf:RDF>
      <cc:Work
         rdf:about="">
        <dc:format>image/svg+xml</dc:format>
        <dc:type
           rdf:resource="http://purl.org/dc/dcmitype/StillImage" />
        <dc:title></dc:title>
      </cc:Work>
    </rdf:RDF>
  </metadata>
  <defs
     id="defs8" />
  <sodipodi:namedview
     pagecolor="#ffffff"
     bordercolor="#666666"
     borderopacity="1"
     objecttolerance="10"
     gridtolerance="10"
     guidetolerance="10"
     inkscape:pageopacity="0"
     inkscape:pageshadow="2"
     inkscape:window-width="1505"
     inkscape:window-height="788"
     id="namedview6"
     showgrid="false"
     inkscape:zoom="14.75"
     inkscape:cx="8"
     inkscape:cy="8"
     inkscape:window-x="58"
     inkscape:window-y="27"
     inkscape:window-maximized="0"
     inkscape:current-layer="svg4" />
  <path
     d="M 1,6.5 C 1,5.6715729 1.6715729,5 2.5,5 h 3 C 6.3284271,5 7,5.6715729 7,6.5 v 3 C 7,10.328427 6.3284271,11 5.5,11 h -3 C 1.6715729,11 1,10.328427 1,9.5 Z M 2.5,6 C 2.2238576,6 2,6.2238576 2,6.5 v 3 C 2,9.7761424 2.2238576,10 2.5,10 h 3 C 5.7761424,10 6,9.7761424 6,9.5 v -3 C 6,6.2238576 5.7761424,6 5.5,6 Z M 9,6.5 C 9,5.6715729 9.6715729,5 10.5,5 h 3 C 14.328427,5 15,5.6715729 15,6.5 v 3 c 0,0.828427 -0.671573,1.5 -1.5,1.5 h -3 C 9.6715729,11 9,10.328427 9,9.5 Z M 10.5,6 C 10.223858,6 10,6.2238576 10,6.5 v 3 c 0,0.2761424 0.223858,0.5 0.5,0.5 h 3 C 13.776142,10 14,9.7761424 14,9.5 v -3 C 14,6.2238576 13.776142,6 13.5,6 Z"
     id="path2"
     inkscape:connector-curvature="0"
     sodipodi:nodetypes="ssssssssssssssssssssssssssssssssssss" />
</svg>
